# xmcd CD database file
#
# Track frame offsets:
#	150
#	13827
#	26760
#	45790
#	66960
#	78717
#	93585
#	112957
#	127817
#	140640
#
# Disc length: 2086 seconds
#
# Revision: 26
# Processed by: cddbd v1.5.2PL0 Copyright (c) Steve Scherf et al.
# Submitted via: CDex 1.51
#
DISCID=8008240a
DTITLE=Santana - Santana's Greatest Hits
DYEAR=1974
DGENRE=Blues
TTITLE0=Evil Ways
TTITLE1=Jingo
TTITLE2=Hope You're Feeling Better
TTITLE3=Samba Pa Ti
TTITLE4=Persuasion
TTITLE5=Black Magic Woman
TTITLE6=Oye Como Va
TTITLE7=Everything's Coming Our Way
TTITLE8=Se a Cabo
TTITLE9=Everybody's Everything
EXTD=LABEL =CBS Inc.\nID =CK33050\nUPC =07464-33050-2\nCOPYRIGHT =1974 YEAR: 1974
EXTT0=
EXTT1=
EXTT2=
EXTT3=
EXTT4=
EXTT5=
EXTT6=
EXTT7=
EXTT8=
EXTT9=
PLAYORDER=
